<svg xmlns="http://www.w3.org/2000/svg" viewBox="0 0 500 500"><g id="freepik--background-simple--inject-46"><path d="M418.13,102.71S327.86,8.54,255.36,10.05-2.17,198.86,6.89,275.89,156.42,458.66,227.42,481.32,460.78,362.74,485.7,263.81,418.13,102.71,418.13,102.71Z" style="fill:#ED1111"></path><path d="M418.13,102.71S327.86,8.54,255.36,10.05-2.17,198.86,6.89,275.89,156.42,458.66,227.42,481.32,460.78,362.74,485.7,263.81,418.13,102.71,418.13,102.71Z" style="fill:#fff;opacity:0.7000000000000001"></path></g><g id="freepik--Floor--inject-46"><line x1="14.47" y1="377.99" x2="486.46" y2="377.99" style="fill:none;stroke:#263238;stroke-miterlimit:10"></line></g><g id="freepik--plant-2--inject-46"><path d="M385.4,415.51a103,103,0,0,1-14.33,2.08,150.79,150.79,0,0,1-43.92-1.69c-7.59-1.42-15.51-4.28-16.63-12.95l-9.12-66H408.79s-8.94,64.37-9.12,65.68C398.61,410.31,392.4,413.75,385.4,415.51Z" style="fill:#adadad;stroke:#263238;stroke-miterlimit:10"></path><ellipse cx="354.59" cy="316.7" rx="59.89" ry="11.2" style="fill:#adadad;stroke:#263238;stroke-miterlimit:10"></ellipse><path d="M294.7,316.7v23c0,6.18,26.81,11.2,59.89,11.2s59.89-5,59.89-11.2v-23Z" style="fill:#adadad;stroke:#263238;stroke-miterlimit:10"></path><ellipse cx="354.59" cy="316.7" rx="59.89" ry="11.2" style="fill:#adadad;stroke:#263238;stroke-miterlimit:10"></ellipse><ellipse cx="354.59" cy="316.7" rx="53.72" ry="10.05" style="fill:#263238;stroke:#263238;stroke-miterlimit:10"></ellipse><path d="M340.06,193.44s-1.52-27.81,1.53-46.14,6.11-42.16,7.33-37.58.61,31.78,2.14,37.58,3.67,11,3.67,17.42-.61,9.77.3,13.75,1.53,13.44,1.53,13.44l2.14,11a55.45,55.45,0,0,0-.61,6.72c0,2.75,2.44,9.78,2.44,9.78s-1.52,9.16-.91,13.13a83.7,83.7,0,0,0,2.44,9.78s.61,10.39,1.22,13.75a59.08,59.08,0,0,0,2.14,7.64L368,290.62l-1.34,27.19-29.94-6.75Z" style="fill:#ED1111;stroke:#263238;stroke-miterlimit:10"></path><path d="M346.79,313.2S338.54,239,335.18,206.88s-.92-63.85.91-59.27,2.75,39.41,8.25,57.13,12.53,70.58,15.58,83.41,3.36,29.35,3.36,29.35Z" style="fill:#ED1111;stroke:#263238;stroke-miterlimit:10"></path><path d="M356.26,217s-7.34,6.11-7.64,34.83.3,66.93.3,66.93l10.7-1.22s-5.81-66.93-4.89-77.62S358.39,214.21,356.26,217Z" style="fill:#ED1111;stroke:#263238;stroke-miterlimit:10"></path><path d="M319.28,292.2c3.26,8.69,9.31,23.14,11,27.65h17.88C352,319.39,355,319,355,319s-50.91-104.27-52.8-110a45.39,45.39,0,0,1-2.22-9.17,12.73,12.73,0,0,1-3.16-6,56.22,56.22,0,0,1-.63-8.22s-3.48-4.11-4.11-7.27-1.27-7.91-1.27-7.91a24.08,24.08,0,0,1-2.84-8.53c-.32-4.12-2.85-7.59-3.48-11.07s-.95-8.22-.95-8.22-1.58-4.75-1.58-7.28v-6.64s-1-5.69-1-7.27.32-6.32.32-6.32-1.59-7.59-1.59-9.81v-4.11c0-1.26-.31-4.42-.31-5.37s-.95-11.07-.95-20.56-7.27-16.12-7.27-16.12-1.15,47.15,2.33,74.66,17.59,83.13,21.07,95.77S315.49,282.09,319.28,292.2Z" style="fill:#ED1111;stroke:#263238;stroke-miterlimit:10"></path><path d="M369.57,319.85h2.91l14.28-92.26s9.72-94.47,23-119.19,20.09-37.09,20.09-37.09a96.75,96.75,0,0,0-23.62,26.93c-9.71,16.78-19.65,46.8-24.5,72S371.31,211,371.31,211a23.66,23.66,0,0,1-1.1,7.5c-1.32,4.64-2.21,8.17-2.21,8.17a16,16,0,0,1-.44,5.07c-.66,1.77-3.09,6.85-3.09,6.85a20.64,20.64,0,0,1-1.1,7.06c-1.33,4.19-2.43,5.3-2.43,5.3a10.16,10.16,0,0,1-.22,7.06c-1.55,3.75-2.43,5.74-2.43,5.74a8.59,8.59,0,0,1,.44,5.08c-.66,2.65.88,24.28.88,24.28L355,317.64Z" style="fill:#ED1111;stroke:#263238;stroke-miterlimit:10"></path><g style="opacity:0.54"><path d="M409.43,100.07s-3,3.63-3.05,6.07l0,2.44a7.26,7.26,0,0,0,2.61-3.94A34.2,34.2,0,0,0,409.43,100.07Z" style="fill:#fff"></path><path d="M414.89,90.92s-3.18,2.69-3.49,4.71l-.31,2a6.37,6.37,0,0,0,2.84-3A25.79,25.79,0,0,0,414.89,90.92Z" style="fill:#fff"></path><path d="M405,109.72s-3,3.63-3,6.07l0,2.45a7.36,7.36,0,0,0,2.62-3.95A33.09,33.09,0,0,0,405,109.72Z" style="fill:#fff"></path><path d="M401.34,121.71s-3,3.63-3,6.07l0,2.44a7.26,7.26,0,0,0,2.61-3.94A34.2,34.2,0,0,0,401.34,121.71Z" style="fill:#fff"></path><path d="M397.88,132.72s-3,3.64-3.05,6.08l0,2.44a7.36,7.36,0,0,0,2.62-4A33.09,33.09,0,0,0,397.88,132.72Z" style="fill:#fff"></path><path d="M393.86,145.53s-2.87,3.76-2.78,6.2l.09,2.44a7.29,7.29,0,0,0,2.44-4.06A32.77,32.77,0,0,0,393.86,145.53Z" style="fill:#fff"></path><path d="M390.63,158.86s-2.59,4-2.32,6.39l.27,2.43a7.34,7.34,0,0,0,2.13-4.23A33.16,33.16,0,0,0,390.63,158.86Z" style="fill:#fff"></path><path d="M387.76,176.39s-2.59,4-2.32,6.39l.27,2.43a7.3,7.3,0,0,0,2.13-4.23A33.24,33.24,0,0,0,387.76,176.39Z" style="fill:#fff"></path><path d="M385.08,194.87s-2.13,4.23-1.59,6.61l.53,2.38a7.25,7.25,0,0,0,1.65-4.44A33,33,0,0,0,385.08,194.87Z" style="fill:#fff"></path><path d="M383,211.88s-2.22,4.18-1.73,6.57l.48,2.4a7.33,7.33,0,0,0,1.75-4.4A34.2,34.2,0,0,0,383,211.88Z" style="fill:#fff"></path><path d="M380.32,230.86s-2.22,4.18-1.73,6.58l.49,2.39a7.31,7.31,0,0,0,1.74-4.4A34.2,34.2,0,0,0,380.32,230.86Z" style="fill:#fff"></path><path d="M377.24,251.7s-2.22,4.18-1.73,6.57l.48,2.4a7.29,7.29,0,0,0,1.74-4.41A33,33,0,0,0,377.24,251.7Z" style="fill:#fff"></path></g><path d="M324,228.65c2.31,6.33,19.52,78.27,22.61,91.2h12.74l13-2.12-10.11-30,2.21-1.58s-4.43-5.7-5.38-7.91-1.58-4.11-1.58-4.11l2.53-1.9s-5.06-5.06-6-7.9a3.34,3.34,0,0,1,1.27-4.11s-4.43-5.38-4.74-8.22-.32-3.8.63-4.43l.95-.63s-4.11-5.06-5.06-7.91a5.28,5.28,0,0,1,1.26-5.06s-4.74-4.74-6-9.17.95-6.32.95-6.32a29,29,0,0,1-4.74-6.64c-1.9-3.8-1.9-10.75-1.9-10.75l-2.21-3.48-2.53-7.91s-2.53-5.06-2.85-7.27-.31-8.22-.31-8.22-3.48-6-4.11-8.22-.64-8.23-.64-8.23-2.53-6-3.16-8.53-2.84-10.44-4.11-16.13S312,116.08,312,116.08s-2.22,27.82,3.79,55.33S321.49,221.69,324,228.65Z" style="fill:#ED1111;stroke:#263238;stroke-miterlimit:10"></path><path d="M326.55,238.45a9.35,9.35,0,0,0,3.17,6l2.84,2.21a25.06,25.06,0,0,0,2.21,9.8c2.22,4.43,4.12,5.69,4.12,5.69s-1.59,4.75.31,8.23,4.11,5.37,4.11,6.32-.95,7,.32,9.49,5.06,9.17,5.06,9.17.63,3.79,1.26,6,4.75,5.38,4.75,5.38.94.32.63,4.74S355,319,355,319h0l-8.54.31Z" style="fill:#ED1111;stroke:#263238;stroke-miterlimit:10"></path><path d="M326.55,238.45a9.35,9.35,0,0,0,3.17,6l2.84,2.21a25.06,25.06,0,0,0,2.21,9.8c2.22,4.43,4.12,5.69,4.12,5.69s-1.59,4.75.31,8.23,4.11,5.37,4.11,6.32-.95,7,.32,9.49,5.06,9.17,5.06,9.17.63,3.79,1.26,6,4.75,5.38,4.75,5.38.94.32.63,4.74S355,319,355,319h0l-8.54.31Z" style="stroke:#263238;stroke-miterlimit:10;opacity:0.21"></path><path d="M326.55,238.45a9.35,9.35,0,0,0,3.17,6l2.84,2.21a25.06,25.06,0,0,0,2.21,9.8c2.22,4.43,4.12,5.69,4.12,5.69s-1.59,4.75.31,8.23,4.11,5.37,4.11,6.32-.95,7,.32,9.49,5.06,9.17,5.06,9.17.63,3.79,1.26,6,4.75,5.38,4.75,5.38.94.32.63,4.74S355,319,355,319h0l-8.54.31Z" style="fill:none;stroke:#263238;stroke-miterlimit:10"></path><path d="M357.76,319.65c2-6.4,3.57-18.33,5.57-23.33,1-2,3-2,4-4,2-7,2-16,8-22,6-9,4-20,11-28,1-2,1-6,3-9a9,9,0,0,0,1-5,7.58,7.58,0,0,0,2-4c0-9,5-16,6-25,1-3,3-5,4-7,0-3,0-6,1-8,6-9,6-20,13-27,7-9,13-17,21-24,3-2,7-3,10-4,0,1,0,3-1,4a76.07,76.07,0,0,0-12,19c-18,47-23,96-36,146-1,5-6.28,17.24-10,21.53Z" style="fill:#ED1111;stroke:#263238;stroke-miterlimit:10"></path><path d="M357.76,319.65c2-6.4,3.57-18.33,5.57-23.33,1-2,3-2,4-4,2-7,2-16,8-22,6-9,4-20,11-28,1-2,1-6,3-9a9,9,0,0,0,1-5,7.58,7.58,0,0,0,2-4c0-9,5-16,6-25,1-3,3-5,4-7,0-3,0-6,1-8,6-9,6-20,13-27,7-9,13-17,21-24,3-2,7-3,10-4,0,1,0,3-1,4a76.07,76.07,0,0,0-12,19c-18,47-23,96-36,146-1,5-6.28,17.24-10,21.53Z" style="stroke:#263238;stroke-miterlimit:10;opacity:0.21"></path><path d="M410.64,218.58c-.56,3.75-1.56,6.72-2.23,6.62s-.75-3.23-.19-7,1.55-6.71,2.22-6.61S411.2,214.83,410.64,218.58Z" style="fill:#fff;opacity:0.54"></path><path d="M412.5,197.87c-.7,3.73-1.81,6.65-2.47,6.53s-.63-3.25.07-7,1.81-6.65,2.47-6.52S413.21,194.15,412.5,197.87Z" style="fill:#fff;opacity:0.54"></path><path d="M406,213.1c-.56,3.75-1.56,6.71-2.23,6.61s-.75-3.22-.19-7,1.55-6.72,2.22-6.62S406.53,209.34,406,213.1Z" style="fill:#fff;opacity:0.54"></path><path d="M405.84,238.91c-.56,3.75-1.55,6.71-2.22,6.61s-.76-3.22-.2-7,1.56-6.71,2.23-6.61S406.4,235.15,405.84,238.91Z" style="fill:#fff;opacity:0.54"></path><path d="M399.42,251.63c-.56,3.75-1.55,6.72-2.22,6.62s-.76-3.23-.2-7,1.56-6.71,2.23-6.61S400,247.88,399.42,251.63Z" style="fill:#fff;opacity:0.54"></path><path d="M382.53,272.2c-1.21,3.59-2.7,6.34-3.34,6.12s-.19-3.3,1-6.9,2.7-6.34,3.34-6.13S383.73,268.6,382.53,272.2Z" style="fill:#fff;opacity:0.54"></path><path d="M399.16,272.28c-.9,3.69-2.15,6.55-2.81,6.39s-.46-3.28.43-7,2.15-6.54,2.81-6.39S400.05,268.59,399.16,272.28Z" style="fill:#fff;opacity:0.54"></path><path d="M372.92,296.46c-1.47,3.5-3.17,6.12-3.79,5.86s.07-3.31,1.54-6.81,3.17-6.12,3.79-5.86S374.39,293,372.92,296.46Z" style="fill:#fff;opacity:0.54"></path><path d="M391.67,246.18c-.56,3.75-1.56,6.71-2.23,6.61s-.76-3.22-.19-7,1.55-6.72,2.22-6.62S392.23,242.42,391.67,246.18Z" style="fill:#fff;opacity:0.54"></path><path d="M400.09,230.94c-.56,3.75-1.55,6.72-2.22,6.62s-.76-3.23-.2-7,1.56-6.71,2.23-6.61S400.65,227.19,400.09,230.94Z" style="fill:#fff;opacity:0.54"></path><path d="M393.57,263.43c-1.07,3.64-2.47,6.44-3.12,6.24s-.3-3.29.77-6.93,2.47-6.44,3.12-6.24S394.64,259.79,393.57,263.43Z" style="fill:#fff;opacity:0.54"></path><path d="M380.83,306.45c-2,3.21-4.12,5.52-4.7,5.16s.61-3.25,2.63-6.46,4.12-5.52,4.69-5.16S382.85,303.24,380.83,306.45Z" style="fill:#fff;opacity:0.54"></path><path d="M387.11,287.7c-1.37,3.54-3,6.21-3.63,6s0-3.31,1.35-6.84,3-6.21,3.63-6S388.49,284.17,387.11,287.7Z" style="fill:#fff;opacity:0.54"></path><path d="M357.76,319.65c2-6.4,3.57-18.33,5.57-23.33,1-2,3-2,4-4,2-7,2-16,8-22,6-9,4-20,11-28,1-2,1-6,3-9a9,9,0,0,0,1-5,7.58,7.58,0,0,0,2-4c0-9,5-16,6-25,1-3,3-5,4-7,0-3,0-6,1-8,6-9,6-20,13-27,7-9,13-17,21-24,3-2,7-3,10-4,0,1,0,3-1,4a76.07,76.07,0,0,0-12,19c-18,47-23,96-36,146-1,5-6.28,17.24-10,21.53Z" style="fill:none;stroke:#263238;stroke-miterlimit:10"></path><path d="M436,219.79c-12,15.5-27.82,41.11-33.2,48.7-4.89,6.9-21.55,44.6-24.52,51.36H400.4c2.26-5.58,27.13-66.66,35.88-82.35,9.17-16.44,13.6-21.82,16.13-25.3s13.91-11.7,13.91-11.7S448,204.3,436,219.79Z" style="fill:#ED1111;stroke:#263238;stroke-miterlimit:10"></path><g style="opacity:0.54"><path d="M437.33,224.09s-3.52,3.16-3.9,5.57l-.37,2.42a7.28,7.28,0,0,0,3.16-3.53A33.53,33.53,0,0,0,437.33,224.09Z" style="fill:#fff"></path><path d="M444.06,215.83s-3.53,2.21-4.13,4.17l-.6,2a6.4,6.4,0,0,0,3.24-2.56A24.9,24.9,0,0,0,444.06,215.83Z" style="fill:#fff"></path><path d="M431.58,233s-3.53,3.15-3.9,5.57l-.37,2.41a7.29,7.29,0,0,0,3.15-3.53A32.37,32.37,0,0,0,431.58,233Z" style="fill:#fff"></path><path d="M426.19,244.33s-3.53,3.16-3.9,5.57l-.37,2.42a7.28,7.28,0,0,0,3.16-3.53A33.53,33.53,0,0,0,426.19,244.33Z" style="fill:#fff"></path><path d="M421.18,254.73s-3.53,3.16-3.9,5.57l-.37,2.42a7.29,7.29,0,0,0,3.15-3.53A32.7,32.7,0,0,0,421.18,254.73Z" style="fill:#fff"></path><path d="M415.79,265.32s-3.52,3.15-3.9,5.57l-.37,2.41a7.28,7.28,0,0,0,3.16-3.53A33.6,33.6,0,0,0,415.79,265.32Z" style="fill:#fff"></path><path d="M410.41,277.94s-3.53,3.16-3.9,5.57l-.37,2.42a7.29,7.29,0,0,0,3.15-3.53A32.7,32.7,0,0,0,410.41,277.94Z" style="fill:#fff"></path></g><path d="M323.34,319.85h27.23A189.51,189.51,0,0,0,343.7,292c-5.23-16.06-26.18-78.19-27.22-83.77s-5.24-5.94-5.59,2.79,4.19,57.59,5.24,71.91C317,294.94,321.8,314,323.34,319.85Z" style="fill:#ED1111;stroke:#263238;stroke-miterlimit:10"></path><path d="M323.34,319.85h27.23A189.51,189.51,0,0,0,343.7,292c-5.23-16.06-26.18-78.19-27.22-83.77s-5.24-5.94-5.59,2.79,4.19,57.59,5.24,71.91C317,294.94,321.8,314,323.34,319.85Z" style="stroke:#263238;stroke-miterlimit:10;opacity:0.21"></path><path d="M325.53,254.84c1.05,3.23,1.44,6,.86,6.18s-1.89-2.28-2.94-5.5-1.44-6-.86-6.18S324.48,251.61,325.53,254.84Z" style="fill:#fff;opacity:0.54"></path><path d="M318.75,237.53c.93,3.26,1.21,6,.63,6.21s-1.81-2.35-2.73-5.61-1.21-6-.63-6.21S317.83,234.27,318.75,237.53Z" style="fill:#fff;opacity:0.54"></path><path d="M319.61,252.32c1.05,3.22,1.43,6,.86,6.18s-1.89-2.28-3-5.5-1.43-6-.86-6.18S318.55,249.09,319.61,252.32Z" style="fill:#fff;opacity:0.54"></path><path d="M329.82,273c1.05,3.23,1.43,6,.86,6.18s-1.89-2.28-2.94-5.5-1.44-6-.87-6.18S328.76,269.79,329.82,273Z" style="fill:#fff;opacity:0.54"></path><path d="M329.76,285.75c1.06,3.23,1.44,6,.87,6.18s-1.89-2.27-2.95-5.5-1.43-6-.86-6.18S328.71,282.53,329.76,285.75Z" style="fill:#fff;opacity:0.54"></path><path d="M337.8,302.37c.76,3.31.89,6.1.3,6.23s-1.68-2.43-2.43-5.74-.89-6.09-.31-6.23S337,299.07,337.8,302.37Z" style="fill:#fff;opacity:0.54"></path><path d="M321.38,284.49c1.05,3.22,1.44,6,.86,6.18s-1.89-2.28-2.94-5.5-1.44-6-.86-6.18S320.33,281.26,321.38,284.49Z" style="fill:#fff;opacity:0.54"></path><path d="M322,268.94c1,3.22,1.43,6,.86,6.18s-1.89-2.28-2.94-5.5-1.44-6-.87-6.18S321,265.71,322,268.94Z" style="fill:#fff;opacity:0.54"></path><path d="M329.8,297.53c.59,3.34.59,6.13,0,6.24s-1.56-2.52-2.16-5.86-.59-6.13,0-6.24S329.2,294.19,329.8,297.53Z" style="fill:#fff;opacity:0.54"></path><path d="M323.34,319.85h27.23A189.51,189.51,0,0,0,343.7,292c-5.23-16.06-26.18-78.19-27.22-83.77s-5.24-5.94-5.59,2.79,4.19,57.59,5.24,71.91C317,294.94,321.8,314,323.34,319.85Z" style="fill:none;stroke:#263238;stroke-miterlimit:10"></path><path d="M330.06,319.85l-4.86-10.72s-30.37-43.64-37.7-58.3-11.17-27.57-14-28.62,1.4,7.68,5.59,23.73,30.33,72.52,31.73,73.91Z" style="fill:#ED1111;stroke:#263238;stroke-miterlimit:10"></path><path d="M315.75,315.39h-.14c-1.88-3-3.9-6.34-4.37-7.28a37,37,0,0,1-1.91-5.72,36.08,36.08,0,0,1-3.58-4.3,44.31,44.31,0,0,1-3.58-7.63s-1.67-2.15-3.34-4.53-1.9-6.68-1.9-6.68a15.63,15.63,0,0,1-3.34-6c-1.2-3.82-2.87-10.74-2.87-10.74a45.68,45.68,0,0,1-5.24-6c-2.87-3.82-3.58-11.69-3.58-11.69a48,48,0,0,1-4.53-8.35c-1.44-3.82-3.83-14.33-3.83-14.33l-.38-.08c-2,0,2,8.62,6,23.81,3.51,13.47,22.47,55.36,29.32,69.34.44,1.2,2.43,6.16,5.59,7.32a11.18,11.18,0,0,0,6.64.38Z" style="fill:#ED1111;stroke:#263238;stroke-miterlimit:10"></path><path d="M315.75,315.39h-.14c-1.88-3-3.9-6.34-4.37-7.28a37,37,0,0,1-1.91-5.72,36.08,36.08,0,0,1-3.58-4.3,44.31,44.31,0,0,1-3.58-7.63s-1.67-2.15-3.34-4.53-1.9-6.68-1.9-6.68a15.63,15.63,0,0,1-3.34-6c-1.2-3.82-2.87-10.74-2.87-10.74a45.68,45.68,0,0,1-5.24-6c-2.87-3.82-3.58-11.69-3.58-11.69a48,48,0,0,1-4.53-8.35c-1.44-3.82-3.83-14.33-3.83-14.33l-.38-.08c-2,0,2,8.62,6,23.81,3.51,13.47,22.47,55.36,29.32,69.34.44,1.2,2.43,6.16,5.59,7.32a11.18,11.18,0,0,0,6.64.38Z" style="stroke:#263238;stroke-miterlimit:10;opacity:0.21"></path><path d="M315.75,315.39h-.14c-1.88-3-3.9-6.34-4.37-7.28a37,37,0,0,1-1.91-5.72,36.08,36.08,0,0,1-3.58-4.3,44.31,44.31,0,0,1-3.58-7.63s-1.67-2.15-3.34-4.53-1.9-6.68-1.9-6.68a15.63,15.63,0,0,1-3.34-6c-1.2-3.82-2.87-10.74-2.87-10.74a45.68,45.68,0,0,1-5.24-6c-2.87-3.82-3.58-11.69-3.58-11.69a48,48,0,0,1-4.53-8.35c-1.44-3.82-3.83-14.33-3.83-14.33l-.38-.08c-2,0,2,8.62,6,23.81,3.51,13.47,22.47,55.36,29.32,69.34.44,1.2,2.43,6.16,5.59,7.32a11.18,11.18,0,0,0,6.64.38Z" style="fill:none;stroke:#263238;stroke-miterlimit:10"></path><path d="M380.26,319.37s5.5-10.43,7.21-11.95,6.45-3.22,8.54-5.5,10.05-10.44,10.05-10.44L411,289.4l6.45-4.56a24.77,24.77,0,0,1,4.74-2.08c1.71-.38,11.19-3.42,9.11-.95s-21.25,23.34-24.1,27.32-6.26,9.3-6.26,9.3-2.09,2.08-7.4,4.17-9.3,2.09-11.76,1.52S378.55,322,380.26,319.37Z" style="fill:#ED1111;stroke:#263238;stroke-miterlimit:10"></path><path d="M380.26,319.37s5.5-10.43,7.21-11.95,6.45-3.22,8.54-5.5,10.05-10.44,10.05-10.44L411,289.4l6.45-4.56a24.77,24.77,0,0,1,4.74-2.08c1.71-.38,11.19-3.42,9.11-.95s-21.25,23.34-24.1,27.32-6.26,9.3-6.26,9.3-2.09,2.08-7.4,4.17-9.3,2.09-11.76,1.52S378.55,322,380.26,319.37Z" style="stroke:#263238;stroke-miterlimit:10;opacity:0.21"></path><path d="M380.26,319.37s5.5-10.43,7.21-11.95,6.45-3.22,8.54-5.5,10.05-10.44,10.05-10.44L411,289.4l6.45-4.56a24.77,24.77,0,0,1,4.74-2.08c1.71-.38,11.19-3.42,9.11-.95s-21.25,23.34-24.1,27.32-6.26,9.3-6.26,9.3-2.09,2.08-7.4,4.17-9.3,2.09-11.76,1.52S378.55,322,380.26,319.37Z" style="fill:none;stroke:#263238;stroke-miterlimit:10"></path><path d="M319.06,319.52s7-3,7.65-2.78a16.48,16.48,0,0,0,3.48,0s5.33.7,6.25.24,10.9-2.32,13.21-1.86,9.51,3,11.36,3.48,7.18-.47,8.81-.23,4.17-.47,5.56.23,4.88.77,4.88.77-2.33,3.17-8.36,3.4-22.71,1.39-30.59,1.39S320.68,323,320.68,323Z" style="fill:#263238;stroke:#263238;stroke-miterlimit:10"></path></g><g id="freepik--plant-1--inject-46"><ellipse cx="150.57" cy="353.24" rx="71.82" ry="13.43" style="fill:#adadad;stroke:#263238;stroke-miterlimit:10"></ellipse><path d="M78.75,353.24v51c0,7.42,32.15,13.43,71.82,13.43s71.82-6,71.82-13.43v-51Z" style="fill:#adadad;stroke:#263238;stroke-miterlimit:10"></path><ellipse cx="150.57" cy="353.24" rx="71.82" ry="13.43" style="fill:#adadad;stroke:#263238;stroke-miterlimit:10"></ellipse><ellipse cx="150.57" cy="353.24" rx="64.42" ry="12.05" style="fill:#263238;stroke:#263238;stroke-miterlimit:10"></ellipse><path d="M226,91.55S205.25,117.37,200.68,123s-6.72,6.73-6.72,6.73,3.23-2.16-3.5,13.44-11,18.82-11,18.82-4.3,20.71-8.07,27.7a100.08,100.08,0,0,1-5.11,8.87s2.69,3,1.35,8.07-2.42,24.74-6.19,34.42-4.84,11.83-4.84,11.83-2.15,30.65-4,36.83a33.27,33.27,0,0,1-4,9.15s2.15,13.71-.27,18.55L144.48,325s14.25,11,27.43-3,14.52-35.49,15.33-39,4.84-47.86,4.84-47.86l-.54-43.56L195,157.16l12.64-22.85,12.37-28Z" style="fill:#ED1111;stroke:#263238;stroke-miterlimit:10"></path><path d="M226,91.55s-10.49,25-13.72,29.58a5.31,5.31,0,0,1-7.53,1.61s.81,7-1.88,18-9.68,15.06-9.68,15.06-.54,26.89-2.69,32-4.57,6.45-4.57,6.45,3,11,3.5,16.13a116.87,116.87,0,0,1-1.08,28c-1.88,11.29-5.64,13.44-5.64,13.44s3.76,11.83,3.49,19.09-8.6,21.24-8.6,21.24.53,9.95-1.62,18.29a60.9,60.9,0,0,1-4.84,13.17s13.72-14.52,19.09-40.6,4.58-89.81,4.58-96.26-.81-23.93,11.83-49.48A401.66,401.66,0,0,0,226,91.55Z" style="fill:#ED1111;stroke:#263238;stroke-miterlimit:10"></path><path d="M226,91.55s-10.49,25-13.72,29.58a5.31,5.31,0,0,1-7.53,1.61s.81,7-1.88,18-9.68,15.06-9.68,15.06-.54,26.89-2.69,32-4.57,6.45-4.57,6.45,3,11,3.5,16.13a116.87,116.87,0,0,1-1.08,28c-1.88,11.29-5.64,13.44-5.64,13.44s3.76,11.83,3.49,19.09-8.6,21.24-8.6,21.24.53,9.95-1.62,18.29a60.9,60.9,0,0,1-4.84,13.17s13.72-14.52,19.09-40.6,4.58-89.81,4.58-96.26-.81-23.93,11.83-49.48A401.66,401.66,0,0,0,226,91.55Z" style="stroke:#263238;stroke-miterlimit:10;opacity:0.21"></path><path d="M226,91.55s-10.49,25-13.72,29.58a5.31,5.31,0,0,1-7.53,1.61s.81,7-1.88,18-9.68,15.06-9.68,15.06-.54,26.89-2.69,32-4.57,6.45-4.57,6.45,3,11,3.5,16.13a116.87,116.87,0,0,1-1.08,28c-1.88,11.29-5.64,13.44-5.64,13.44s3.76,11.83,3.49,19.09-8.6,21.24-8.6,21.24.53,9.95-1.62,18.29a60.9,60.9,0,0,1-4.84,13.17s13.72-14.52,19.09-40.6,4.58-89.81,4.58-96.26-.81-23.93,11.83-49.48A401.66,401.66,0,0,0,226,91.55Z" style="fill:none;stroke:#263238;stroke-miterlimit:10"></path><path d="M16,130.27s29,14,45.45,46c18.55,36,15.32,49.75,22,87.12s14.25,53.51,28.5,64,29.31,3.49,29.31,3.49-14-39-20.44-57S106,227.61,106,227.61s-2.42.54-7.26-16.94-5.91-21.78-5.91-21.78-5.11-.27-10.22-8.6-8.07-14.52-8.07-14.52a102.83,102.83,0,0,1-13.17-10.22,37.39,37.39,0,0,1-8.07-11s-2.42,3-11.83-3.22S16,130.27,16,130.27Z" style="fill:#ED1111;stroke:#263238;stroke-miterlimit:10"></path><path d="M114.92,323.87c-6.19-7.53-10.22-30.11-10.22-30.11s-4.57-2.15-7.8-12.64-3.5-35.49-3.5-35.49-2.42.8-5.91-7-4.84-29-4.84-29-1.88,0-5.11-8.34-5.38-25.54-5.38-25.54-4,3.49-10.48-4.84A68.18,68.18,0,0,1,52,152.59l-7.53-3.76c-2.44-1.22-6.28-3.59-10.37-6.24a109.66,109.66,0,0,1,27.31,33.66c18.55,36,15.32,49.75,22,87.12s14.25,53.51,28.5,64A29,29,0,0,0,126.15,333,35,35,0,0,1,114.92,323.87Z" style="fill:#ED1111;stroke:#263238;stroke-miterlimit:10"></path><path d="M114.92,323.87c-6.19-7.53-10.22-30.11-10.22-30.11s-4.57-2.15-7.8-12.64-3.5-35.49-3.5-35.49-2.42.8-5.91-7-4.84-29-4.84-29-1.88,0-5.11-8.34-5.38-25.54-5.38-25.54-4,3.49-10.48-4.84A68.18,68.18,0,0,1,52,152.59l-7.53-3.76c-2.44-1.22-6.28-3.59-10.37-6.24a109.66,109.66,0,0,1,27.31,33.66c18.55,36,15.32,49.75,22,87.12s14.25,53.51,28.5,64A29,29,0,0,0,126.15,333,35,35,0,0,1,114.92,323.87Z" style="stroke:#263238;stroke-miterlimit:10;opacity:0.21"></path><path d="M114.92,323.87c-6.19-7.53-10.22-30.11-10.22-30.11s-4.57-2.15-7.8-12.64-3.5-35.49-3.5-35.49-2.42.8-5.91-7-4.84-29-4.84-29-1.88,0-5.11-8.34-5.38-25.54-5.38-25.54-4,3.49-10.48-4.84A68.18,68.18,0,0,1,52,152.59l-7.53-3.76c-2.44-1.22-6.28-3.59-10.37-6.24a109.66,109.66,0,0,1,27.31,33.66c18.55,36,15.32,49.75,22,87.12s14.25,53.51,28.5,64A29,29,0,0,0,126.15,333,35,35,0,0,1,114.92,323.87Z" style="fill:none;stroke:#263238;stroke-miterlimit:10"></path><path d="M147.07,118.44s-4.09,2.78-2.18,43.37,2.72,74,.27,77.29l-2.45,3.34,2.18,21.13-8.72,44.76s12.53,15.57,16.07,16.13,21-28.64,21-28.64-10.35-16.68-10.08-22.8a147.5,147.5,0,0,1,2.18-16.12,23,23,0,0,1-4.09-9.18c-2.29-12.85,0-18.35,0-18.35s-2.72-8.34-3-14.73c-.17-3.89,1.36-13.62,1.36-13.62s-2.18-23.08-3.54-34.48-2.73-32.25-2.73-32.25Z" style="fill:#ED1111;stroke:#263238;stroke-miterlimit:10"></path><path d="M145.51,309.14,152,264l-3.21-21,2.28-3.45c2.29-3.45-.17-36.73-4.07-77.18s0-43.43,0-43.43l1.52,3.36-1.52-3.86s-4.09,2.78-2.18,43.37,2.72,74,.27,77.29l-2.45,3.34,2.18,21.13-8.72,44.76s12.53,15.57,16.07,16.13c.85.13,2.48-1.43,4.47-3.87C151.66,316.05,145.51,309.14,145.51,309.14Z" style="stroke:#263238;stroke-miterlimit:10;opacity:0.21"></path><path d="M147.07,118.44s-4.09,2.78-2.18,43.37,2.72,74,.27,77.29l-2.45,3.34,2.18,21.13-8.72,44.76s12.53,15.57,16.07,16.13,21-28.64,21-28.64-10.35-16.68-10.08-22.8a147.5,147.5,0,0,1,2.18-16.12,23,23,0,0,1-4.09-9.18c-2.29-12.85,0-18.35,0-18.35s-2.72-8.34-3-14.73c-.17-3.89,1.36-13.62,1.36-13.62s-2.18-23.08-3.54-34.48-2.73-32.25-2.73-32.25Z" style="fill:none;stroke:#263238;stroke-miterlimit:10"></path><path d="M161.43,312.94a43.43,43.43,0,0,1-14-22.2,112.17,112.17,0,0,1-4-26.55,27.59,27.59,0,0,1-10.76-18.12c-1.61-12-.54-17.62-.54-17.62s-6.45-16.84-8.6-26-1.08-11.23-1.08-11.23-4.57-3.07-6.72-12.77a58.05,58.05,0,0,1-1.34-17.1s-.81,1-5.65-10.46S103.08,131,103.08,131a124.37,124.37,0,0,1-9.68-14.81c-5.91-10.21-6.18-17.61-6.18-17.61s-2.15,1.28-7.8-6.13-15.86-13-15.86-13,12.1,18.88,19.63,39.81,20.7,68.41,25.81,103.89,7.53,73.52,14,90.62,21.78,29.61,33.34,31.14,24.2-22.72,24.2-22.72S166.54,319.33,161.43,312.94Z" style="fill:#ED1111;stroke:#263238;stroke-miterlimit:10"></path><path d="M143.41,360.06s30.53,3.49,51.47-9.15,39.68-40.13,48-72.83,13.08-60.62,16.13-69.34a50,50,0,0,1,7.85-14.4s-12.64,8.73-20.49,18.32-10.91,26.6-14,31-9.16,7-9.16,7,1.75,10.47-.43,16.14-8.29,10.9-8.29,10.9-.87,12.21-5.67,18.75-10,8.73-10,8.73S198.36,315.58,191,323,163.48,337,163.48,337a60.73,60.73,0,0,1-14,14c-8.29,5.67-13.52,7-13.52,7Z" style="fill:#ED1111;stroke:#263238;stroke-miterlimit:10"></path><path d="M247.21,234.47a64.49,64.49,0,0,1-7.85,18.75s.43,23.11-3.93,30.09-7,9.16-7,9.16.87,13.95-4.8,19.62A46.75,46.75,0,0,1,211,320.82s-4.36,14.82-10.47,18.31a27.25,27.25,0,0,1-12.21,3.49s-1.74,6.54-11.77,9.6-30.09,2.61-30.09,2.61l-2.32-.58a37.3,37.3,0,0,1-8.15,3.63l7.41,2.18s30.53,3.49,51.47-9.15,39.68-40.13,48-72.83,13.08-60.62,16.13-69.34a50,50,0,0,1,7.85-14.4s-10.46,10.91-15.26,16.14S249.83,223.56,247.21,234.47Z" style="fill:#ED1111;stroke:#263238;stroke-miterlimit:10"></path><path d="M247.21,234.47a64.49,64.49,0,0,1-7.85,18.75s.43,23.11-3.93,30.09-7,9.16-7,9.16.87,13.95-4.8,19.62A46.75,46.75,0,0,1,211,320.82s-4.36,14.82-10.47,18.31a27.25,27.25,0,0,1-12.21,3.49s-1.74,6.54-11.77,9.6-30.09,2.61-30.09,2.61l-2.32-.58a37.3,37.3,0,0,1-8.15,3.63l7.41,2.18s30.53,3.49,51.47-9.15,39.68-40.13,48-72.83,13.08-60.62,16.13-69.34a50,50,0,0,1,7.85-14.4s-10.46,10.91-15.26,16.14S249.83,223.56,247.21,234.47Z" style="stroke:#263238;stroke-miterlimit:10;opacity:0.21"></path><path d="M232.4,301.42c-.91,2.4-2.12,4.16-2.69,3.94s-.29-2.33.63-4.73,2.12-4.16,2.69-3.94S233.32,299,232.4,301.42Z" style="fill:#fff;opacity:0.54"></path><path d="M247.21,234.47a64.49,64.49,0,0,1-7.85,18.75s.43,23.11-3.93,30.09-7,9.16-7,9.16.87,13.95-4.8,19.62A46.75,46.75,0,0,1,211,320.82s-4.36,14.82-10.47,18.31a27.25,27.25,0,0,1-12.21,3.49s-1.74,6.54-11.77,9.6-30.09,2.61-30.09,2.61l-2.32-.58a37.3,37.3,0,0,1-8.15,3.63l7.41,2.18s30.53,3.49,51.47-9.15,39.68-40.13,48-72.83,13.08-60.62,16.13-69.34a50,50,0,0,1,7.85-14.4s-10.46,10.91-15.26,16.14S249.83,223.56,247.21,234.47Z" style="fill:none;stroke:#263238;stroke-miterlimit:10"></path><path d="M251.42,112.26s-16.13,9.41-20.43,15.59-5.38,11-7.8,11.3l-2.42.27a32.92,32.92,0,0,1-2.69,13.17c-3,6.72-6.72,9.14-6.72,9.14a39.1,39.1,0,0,1-1.62,18C206.52,190,202,193.19,202,193.19s1.34,15.6-2.69,24.74-8.07,11-8.07,11-.27,17.47-4.84,26.88-9.68,10.76-9.68,10.76-1.34,20.7-7.26,26.89l-5.91,6.18s1.61,15.6-7.53,22.05a58.84,58.84,0,0,1-19.63,8.61s13.71,14.25,24.2,15.86,10.48,2.69,25.54-13.71,21-48.94,28.5-83.63,13.72-89,21.52-107.55S251.42,112.26,251.42,112.26Z" style="fill:#ED1111;stroke:#263238;stroke-miterlimit:10"></path><path d="M251.42,112.26s-16.13,9.41-20.43,15.59-5.38,11-7.8,11.3l-2.42.27a32.92,32.92,0,0,1-2.69,13.17c-3,6.72-6.72,9.14-6.72,9.14a39.1,39.1,0,0,1-1.62,18C206.52,190,202,193.19,202,193.19s1.34,15.6-2.69,24.74-8.07,11-8.07,11-.27,17.47-4.84,26.88-9.68,10.76-9.68,10.76-1.34,20.7-7.26,26.89l-5.91,6.18s1.61,15.6-7.53,22.05a58.84,58.84,0,0,1-19.63,8.61s13.71,14.25,24.2,15.86,10.48,2.69,25.54-13.71,21-48.94,28.5-83.63,13.72-89,21.52-107.55S251.42,112.26,251.42,112.26Z" style="stroke:#263238;stroke-miterlimit:10;opacity:0.21"></path><path d="M251.42,112.26s-16.13,9.41-20.43,15.59-5.38,11-7.8,11.3l-2.42.27a32.92,32.92,0,0,1-2.69,13.17c-3,6.72-6.72,9.14-6.72,9.14a39.1,39.1,0,0,1-1.62,18C206.52,190,202,193.19,202,193.19s1.34,15.6-2.69,24.74-8.07,11-8.07,11-.27,17.47-4.84,26.88-9.68,10.76-9.68,10.76-1.34,20.7-7.26,26.89l-5.91,6.18s1.61,15.6-7.53,22.05a58.84,58.84,0,0,1-19.63,8.61s13.71,14.25,24.2,15.86,10.48,2.69,25.54-13.71,21-48.94,28.5-83.63,13.72-89,21.52-107.55S251.42,112.26,251.42,112.26Z" style="fill:none;stroke:#263238;stroke-miterlimit:10"></path><path d="M6.42,219.66s26.54,10,45.65,42.51S75.46,328.92,104,346.9s42.8,16.83,51.93,12.84,17.69-15.12,17.69-15.12-28.53-5.14-36-14.55-8.56-12.84-8.56-12.84a28.07,28.07,0,0,1-13.41-10.84,59,59,0,0,1-7.42-16.84,26.93,26.93,0,0,1-13.69-10.27c-5.42-8-6.28-14-6.28-14s-16.83-10.84-21.39-15.12a30.86,30.86,0,0,1-6.85-10.55s-15.12-3.71-19.12-7.71a54.5,54.5,0,0,1-6.27-7.41,37.31,37.31,0,0,1-12.84-1.43A126.81,126.81,0,0,0,6.42,219.66Z" style="fill:#ED1111;stroke:#263238;stroke-miterlimit:10"></path><path d="M6.42,219.66s26.54,10,45.65,42.51S75.46,328.92,104,346.9s42.8,16.83,51.93,12.84,17.69-15.12,17.69-15.12-28.53-5.14-36-14.55-8.56-12.84-8.56-12.84a28.07,28.07,0,0,1-13.41-10.84,59,59,0,0,1-7.42-16.84,26.93,26.93,0,0,1-13.69-10.27c-5.42-8-6.28-14-6.28-14s-16.83-10.84-21.39-15.12a30.86,30.86,0,0,1-6.85-10.55s-15.12-3.71-19.12-7.71a54.5,54.5,0,0,1-6.27-7.41,37.31,37.31,0,0,1-12.84-1.43A126.81,126.81,0,0,0,6.42,219.66Z" style="stroke:#263238;stroke-miterlimit:10;opacity:0.21"></path><path d="M6.42,219.66s26.54,10,45.65,42.51S75.46,328.92,104,346.9s42.8,16.83,51.93,12.84,17.69-15.12,17.69-15.12-28.53-5.14-36-14.55-8.56-12.84-8.56-12.84a28.07,28.07,0,0,1-13.41-10.84,59,59,0,0,1-7.42-16.84,26.93,26.93,0,0,1-13.69-10.27c-5.42-8-6.28-14-6.28-14s-16.83-10.84-21.39-15.12a30.86,30.86,0,0,1-6.85-10.55s-15.12-3.71-19.12-7.71a54.5,54.5,0,0,1-6.27-7.41,37.31,37.31,0,0,1-12.84-1.43A126.81,126.81,0,0,0,6.42,219.66Z" style="fill:none;stroke:#263238;stroke-miterlimit:10"></path><path d="M211.93,240.8c-.56,3.75-1.56,6.71-2.23,6.61s-.75-3.22-.19-7,1.55-6.72,2.22-6.62S212.49,237.05,211.93,240.8Z" style="fill:#fff;opacity:0.54"></path><path d="M213.79,220.09c-.7,3.73-1.81,6.65-2.47,6.53s-.63-3.25.07-7,1.81-6.65,2.47-6.53S214.5,216.36,213.79,220.09Z" style="fill:#fff;opacity:0.54"></path><path d="M207.26,235.31c-.56,3.76-1.56,6.72-2.23,6.62s-.75-3.22-.19-7,1.55-6.71,2.22-6.61S207.82,231.56,207.26,235.31Z" style="fill:#fff;opacity:0.54"></path><path d="M207.13,261.12c-.56,3.76-1.55,6.72-2.22,6.62s-.76-3.22-.2-7,1.56-6.71,2.23-6.61S207.69,257.37,207.13,261.12Z" style="fill:#fff;opacity:0.54"></path><path d="M200.71,273.85c-.56,3.75-1.55,6.71-2.22,6.61s-.76-3.22-.2-7,1.56-6.72,2.23-6.62S201.27,270.1,200.71,273.85Z" style="fill:#fff;opacity:0.54"></path><path d="M183.82,294.41c-1.21,3.6-2.7,6.34-3.34,6.13s-.19-3.3,1-6.9,2.7-6.34,3.34-6.13S185,290.82,183.82,294.41Z" style="fill:#fff;opacity:0.54"></path><path d="M200.45,294.5c-.9,3.68-2.15,6.54-2.81,6.38s-.46-3.27.43-7,2.15-6.55,2.81-6.39S201.34,290.81,200.45,294.5Z" style="fill:#fff;opacity:0.54"></path><path d="M174.21,318.68c-1.47,3.49-3.17,6.12-3.79,5.85s.07-3.3,1.54-6.8,3.17-6.12,3.79-5.86S175.68,315.18,174.21,318.68Z" style="fill:#fff;opacity:0.54"></path><ellipse cx="191.75" cy="268.21" rx="6.87" ry="1.22" transform="translate(-101.85 418.24) rotate(-81.51)" style="fill:#fff;opacity:0.54"></ellipse><path d="M201.38,253.16c-.56,3.75-1.55,6.71-2.22,6.61s-.76-3.22-.2-7,1.56-6.71,2.23-6.61S201.94,249.41,201.38,253.16Z" style="fill:#fff;opacity:0.54"></path><path d="M194.86,285.65c-1.07,3.64-2.47,6.43-3.12,6.24s-.3-3.29.77-6.93,2.47-6.44,3.12-6.25S195.93,282,194.86,285.65Z" style="fill:#fff;opacity:0.54"></path><path d="M182.12,328.67c-2,3.21-4.12,5.52-4.7,5.16s.61-3.25,2.63-6.46,4.12-5.53,4.69-5.17S184.14,325.46,182.12,328.67Z" style="fill:#fff;opacity:0.54"></path><path d="M188.4,309.92c-1.37,3.54-3,6.2-3.63,6s0-3.31,1.35-6.85,3-6.2,3.63-6S189.78,306.38,188.4,309.92Z" style="fill:#fff;opacity:0.54"></path><path d="M111.06,343.35c-2.87-2-4.89-4-4.57-4.43s2.83.83,5.67,2.76,5,3.79,4.67,4.26S113.93,345.3,111.06,343.35Z" style="fill:#fff;opacity:0.54"></path><path d="M127.69,352.38c-3-1.77-5.08-3.66-4.79-4.13s2.86.66,5.8,2.4,5.15,3.48,4.89,4S130.65,354.15,127.69,352.38Z" style="fill:#fff;opacity:0.54"></path><path d="M117,342c-2.85-1.84-4.85-3.79-4.54-4.25s2.79.74,5.6,2.56,4.92,3.61,4.65,4.09S119.87,343.83,117,342Z" style="fill:#fff;opacity:0.54"></path><path d="M96.72,330.82c-2.67-2.19-4.48-4.4-4.12-4.81s2.73,1.08,5.36,3.25,4.56,4.22,4.23,4.67S99.38,333,96.72,330.82Z" style="fill:#fff;opacity:0.54"></path><path d="M89.9,320c-2.49-2.32-4.13-4.6-3.75-5s2.63,1.22,5.09,3.51,4.22,4.43,3.87,4.85S92.39,322.31,89.9,320Z" style="fill:#fff;opacity:0.54"></path><path d="M84,297.79c-1.69-2.76-2.59-5.26-2.11-5.53S84,294,85.68,296.75s2.73,5.15,2.27,5.45S85.66,300.55,84,297.79Z" style="fill:#fff;opacity:0.54"></path><path d="M75.38,308.38c-2.09-2.76-3.34-5.32-2.89-5.63s2.42,1.7,4.49,4.43,3.46,5.17,3,5.51S77.47,311.14,75.38,308.38Z" style="fill:#fff;opacity:0.54"></path><path d="M74.6,277.81c-1.12-3-1.51-5.57-1-5.74s1.76,2.1,2.86,5.05,1.68,5.49,1.17,5.7S75.72,280.8,74.6,277.81Z" style="fill:#fff;opacity:0.54"></path><path d="M97.27,317.34c-2.44-2.19-4-4.37-3.67-4.77s2.58,1.11,5,3.27,4.14,4.2,3.79,4.63S99.71,319.54,97.27,317.34Z" style="fill:#fff;opacity:0.54"></path><path d="M105.07,330.33c-2.65-2.06-4.46-4.15-4.12-4.57s2.71.94,5.33,3,4.54,4,4.23,4.42S107.73,332.38,105.07,330.33Z" style="fill:#fff;opacity:0.54"></path><path d="M84.25,309.76c-2-2.71-3.16-5.2-2.7-5.5s2.35,1.65,4.32,4.33,3.29,5.06,2.86,5.4S86.24,312.46,84.25,309.76Z" style="fill:#fff;opacity:0.54"></path><path d="M64.18,275.79c-.58-3.26-.51-6,0-6s1.38,2.5,2,5.73.7,5.92.15,6S64.76,279.05,64.18,275.79Z" style="fill:#fff;opacity:0.54"></path><path d="M71.66,291.5c-1.44-3-2.1-5.67-1.59-5.88s2,2.07,3.41,5.05,2.27,5.58,1.77,5.83S73.1,294.52,71.66,291.5Z" style="fill:#fff;opacity:0.54"></path><path d="M218.23,324.9c-1.38,2.17-2.92,3.65-3.44,3.32s.19-2.35,1.58-4.51,2.92-3.64,3.43-3.31S219.61,322.74,218.23,324.9Z" style="fill:#fff;opacity:0.54"></path><path d="M204.67,341.41c-1.83,1.8-3.66,2.9-4.09,2.46s.71-2.24,2.54-4,3.66-2.9,4.09-2.47S206.5,339.61,204.67,341.41Z" style="fill:#fff;opacity:0.54"></path><path d="M190.93,348.68c-2.12,1.45-4.11,2.22-4.46,1.71s1.09-2.09,3.21-3.54,4.11-2.21,4.45-1.71S193,347.23,190.93,348.68Z" style="fill:#fff;opacity:0.54"></path><ellipse cx="210.59" cy="329.85" rx="4.65" ry="1.11" transform="translate(-172.7 408.82) rotate(-69.09)" style="fill:#fff;opacity:0.54"></ellipse><path d="M76.36,211.29c.82,2.43,2,4.24,2.53,4.05s.38-2.33-.44-4.76-2-4.24-2.53-4.05S75.54,208.85,76.36,211.29Z" style="fill:#fff;opacity:0.54"></path><path d="M81.49,236.14c.57,2.51,1.51,4.42,2.11,4.29s.61-2.27.05-4.78-1.52-4.42-2.11-4.28S80.92,233.64,81.49,236.14Z" style="fill:#fff;opacity:0.54"></path><path d="M86.79,250.39c1,2.37,2.26,4.09,2.82,3.86s.21-2.35-.78-4.71-2.26-4.09-2.82-3.86S85.79,248,86.79,250.39Z" style="fill:#fff;opacity:0.54"></path><path d="M79.32,224c.19,2.56.83,4.6,1.44,4.55s.95-2.15.77-4.71-.83-4.6-1.44-4.55S79.14,221.44,79.32,224Z" style="fill:#fff;opacity:0.54"></path></g><g id="freepik--aloe-product--inject-46"><rect x="195.74" y="194.99" width="111.65" height="7.7" style="fill:#fff;stroke:#263238;stroke-miterlimit:10"></rect><path d="M280.75,449.51l-1.2.16a222.93,222.93,0,0,1-58.73-.14h0a4.52,4.52,0,0,1-3.9-4.47V411h67.76V445A4.51,4.51,0,0,1,280.75,449.51Z" style="fill:#263238;stroke:#263238;stroke-miterlimit:10"></path><path d="M195.74,202.69s9.24,103.19,15,135.53,3.08,67,4.23,70.84l1.16,3.85s37.73,9.63,70.07,0L307.4,202.69Z" style="fill:#fff;stroke:#263238;stroke-miterlimit:10"></path><path d="M211,287.42l2.65,61.32-.73,4.53c2.92,27.27,1.15,52.54,2.12,55.79l1.16,3.85s2.3.59,6.23,1.33Z" style="fill:#ED1111;stroke:#263238;stroke-miterlimit:10"></path><path d="M257.27,417.14a129.68,129.68,0,0,0,13.14-1l3.75-71.61Z" style="fill:#ED1111;stroke:#263238;stroke-miterlimit:10"></path><path d="M256,417.17,247.28,312.4,234.64,416.07A167.37,167.37,0,0,0,256,417.17Z" style="fill:#ED1111;stroke:#263238;stroke-miterlimit:10"></path><path d="M233.43,415.93l-8.1-68.33-2,66.8C226,414.9,229.48,415.45,233.43,415.93Z" style="fill:#ED1111;stroke:#263238;stroke-miterlimit:10"></path><path d="M293.84,290.83,271.43,416a98.83,98.83,0,0,0,14.79-3.13l4.38-43.42Z" style="fill:#ED1111;stroke:#263238;stroke-miterlimit:10"></path><path d="M289.27,382.69H214.58c.14,7.72.07,14.31.08,19h72.69Z" style="fill:#263238"></path><circle cx="230.17" cy="304.65" r="4.53" style="fill:#263238;stroke:#263238;stroke-miterlimit:10"></circle><path d="M234.7,302.69a4.53,4.53,0,1,1-4.53-4.53A4.53,4.53,0,0,1,234.7,302.69Z" style="fill:#fff;stroke:#263238;stroke-miterlimit:10"></path><path d="M284.88,332.94a4.53,4.53,0,1,1-4.53-4.54A4.53,4.53,0,0,1,284.88,332.94Z" style="fill:#263238;stroke:#263238;stroke-miterlimit:10"></path><path d="M284.88,331a4.53,4.53,0,1,1-4.53-4.53A4.53,4.53,0,0,1,284.88,331Z" style="fill:#fff;stroke:#263238;stroke-miterlimit:10"></path><path d="M290.68,248a2.27,2.27,0,1,1-2.26-2.27A2.26,2.26,0,0,1,290.68,248Z" style="fill:#263238;stroke:#263238;stroke-miterlimit:10"></path><path d="M290.68,247a2.27,2.27,0,1,1-2.26-2.27A2.26,2.26,0,0,1,290.68,247Z" style="fill:#fff;stroke:#263238;stroke-miterlimit:10"></path><path d="M207.9,212.43a2.27,2.27,0,1,1-2.26-2.27A2.27,2.27,0,0,1,207.9,212.43Z" style="fill:#263238;stroke:#263238;stroke-miterlimit:10"></path><path d="M207.9,211.45a2.27,2.27,0,1,1-2.26-2.26A2.27,2.27,0,0,1,207.9,211.45Z" style="fill:#fff;stroke:#263238;stroke-miterlimit:10"></path><path d="M263.47,346.11a2.27,2.27,0,1,1-2.27-2.26A2.27,2.27,0,0,1,263.47,346.11Z" style="fill:#263238;stroke:#263238;stroke-miterlimit:10"></path><path d="M263.47,345.13a2.27,2.27,0,1,1-2.27-2.26A2.27,2.27,0,0,1,263.47,345.13Z" style="fill:#fff;stroke:#263238;stroke-miterlimit:10"></path><path d="M277.4,300a2.27,2.27,0,1,1-2.27-2.27A2.27,2.27,0,0,1,277.4,300Z" style="fill:#263238;stroke:#263238;stroke-miterlimit:10"></path><path d="M277.4,299a2.27,2.27,0,1,1-2.27-2.27A2.27,2.27,0,0,1,277.4,299Z" style="fill:#fff;stroke:#263238;stroke-miterlimit:10"></path><path d="M210.76,230.31l3.74-17.69h1.74L220,230.31h-1.64l-.87-4.74h-4.22l-.89,4.74Zm2.76-5.94h3.75l-1.9-9.55Z" style="fill:#263238"></path><path d="M222.14,230.31V212.62h1.66v16.44h5v1.25Z" style="fill:#263238"></path><path d="M234.59,230.52a4.8,4.8,0,0,1-2.74-.68,3.65,3.65,0,0,1-1.4-1.93,9,9,0,0,1-.4-2.82v-7.34a8.48,8.48,0,0,1,.42-2.81,3.61,3.61,0,0,1,1.42-1.84,4.81,4.81,0,0,1,2.7-.66,4.89,4.89,0,0,1,2.72.66,3.54,3.54,0,0,1,1.41,1.84,8.76,8.76,0,0,1,.41,2.81v7.36a9,9,0,0,1-.4,2.82,3.67,3.67,0,0,1-1.39,1.91A4.82,4.82,0,0,1,234.59,230.52Zm0-1.33a2.87,2.87,0,0,0,1.79-.47,2.35,2.35,0,0,0,.84-1.31,7.56,7.56,0,0,0,.23-1.95v-8a7.43,7.43,0,0,0-.23-1.94,2.27,2.27,0,0,0-.84-1.28,3.77,3.77,0,0,0-3.57,0,2.23,2.23,0,0,0-.85,1.28,7,7,0,0,0-.23,1.94v8a7.15,7.15,0,0,0,.23,1.95,2.31,2.31,0,0,0,.85,1.31A2.86,2.86,0,0,0,234.59,229.19Z" style="fill:#263238"></path><path d="M241.86,230.31V212.62h6.4v1.29h-4.72v6.63h3.85v1.23h-3.85v7.29h4.76v1.25Z" style="fill:#263238"></path><path d="M258.15,230.31,254,212.62h1.6l3.34,14.65,3.14-14.65h1.57l-4,17.69Z" style="fill:#263238"></path><path d="M265.69,230.31V212.62h6.39v1.29h-4.71v6.63h3.84v1.23h-3.84v7.29h4.76v1.25Z" style="fill:#263238"></path><path d="M274.4,230.31V212.62h4a5.41,5.41,0,0,1,2.61.53,3.09,3.09,0,0,1,1.37,1.55,6.32,6.32,0,0,1,.41,2.42,7.88,7.88,0,0,1-.21,1.85,3.68,3.68,0,0,1-.75,1.49,2.58,2.58,0,0,1-1.48.8l2.71,9.05h-1.62l-2.6-8.7h-2.77v8.7Zm1.66-9.92h2.25A3.3,3.3,0,0,0,280,220a2.08,2.08,0,0,0,.88-1.09,5.5,5.5,0,0,0,.26-1.81,4.26,4.26,0,0,0-.57-2.45,2.6,2.6,0,0,0-2.25-.81h-2.29Z" style="fill:#263238"></path><path d="M284.62,230.31l3.73-17.69h1.75l3.76,17.69h-1.64l-.88-4.74h-4.21l-.9,4.74Zm2.75-5.94h3.76l-1.9-9.55Z" style="fill:#263238"></path><path d="M236.61,270.8a8.07,8.07,0,0,1-4.78-1.26,6.88,6.88,0,0,1-2.52-3.61,17.5,17.5,0,0,1-.76-5.43v-10a17.61,17.61,0,0,1,.77-5.51,6.58,6.58,0,0,1,2.71-3.57,9.49,9.49,0,0,1,5.24-1.25,10.21,10.21,0,0,1,5.06,1.06,6.13,6.13,0,0,1,2.67,3,12.07,12.07,0,0,1,.81,4.64v1.73h-5.93v-2.1a14.08,14.08,0,0,0-.14-2.08,2.53,2.53,0,0,0-.68-1.42,2.44,2.44,0,0,0-1.72-.51,2.27,2.27,0,0,0-1.76.62,3.05,3.05,0,0,0-.7,1.6,13.75,13.75,0,0,0-.15,2.08v13.21a10.83,10.83,0,0,0,.22,2.24,2.9,2.9,0,0,0,.83,1.55,2.52,2.52,0,0,0,1.75.55,2.46,2.46,0,0,0,1.76-.59,3.07,3.07,0,0,0,.87-1.6,10,10,0,0,0,.24-2.3v-3.16h-2.91v-3.68h8.39v15.3h-4l-.37-2.68a5.46,5.46,0,0,1-1.77,2.24A5.13,5.13,0,0,1,236.61,270.8Z" style="fill:#263238"></path><path d="M250,270.36v-29.8h13v4.2h-6.91v7.91h5.33v4.23h-5.33v9.34h7v4.12Z" style="fill:#263238"></path><path d="M266.15,270.36v-29.8h6.07v25.68h7v4.12Z" style="fill:#263238"></path></g></svg>
